<?xml version="1.0" standalone="no"?>
<!DOCTYPE svg PUBLIC "-//W3C//DTD SVG 20010904//EN"
 "http://www.w3.org/TR/2001/REC-SVG-20010904/DTD/svg10.dtd">
<svg version="1.0" xmlns="http://www.w3.org/2000/svg"
 width="779.000000pt" height="731.000000pt" viewBox="0 0 779.000000 731.000000"
 preserveAspectRatio="xMidYMid meet">
<metadata>
Created by potrace 1.12, written by Peter Selinger 2001-2015
</metadata>
<g transform="translate(0.000000,731.000000) scale(0.100000,-0.100000)"
fill="#000000" stroke="none">
<path d="M860 7221 c-47 -15 -88 -40 -366 -227 -154 -103 -298 -205 -321 -227
-23 -22 -54 -67 -70 -101 -25 -55 -28 -72 -27 -161 1 -160 -27 -112 561 -983
l164 -242 72 48 c40 27 77 51 83 55 7 4 23 -10 38 -33 14 -22 31 -40 37 -40 6
0 30 14 54 30 24 17 46 30 50 30 4 0 -16 -26 -43 -57 -156 -180 -286 -445
-323 -658 -23 -136 3 -277 64 -344 12 -13 140 -102 285 -198 144 -96 262 -177
262 -181 -1 -4 -138 -103 -305 -221 l-304 -214 37 -52 c20 -29 237 -329 482
-668 l445 -616 43 24 c23 13 40 20 37 14 -4 -5 -19 -16 -36 -24 -35 -19 -36
-25 -4 -59 13 -14 22 -26 19 -26 -3 0 4 -13 15 -29 12 -16 21 -33 21 -37 0 -4
13 -22 28 -39 16 -16 214 -287 441 -601 l412 -572 182 88 c463 224 761 370
769 378 6 6 -217 339 -310 462 -10 14 -153 216 -316 450 -164 234 -302 429
-306 433 -4 5 -17 4 -29 -2 -12 -7 -21 -10 -21 -7 0 2 56 37 125 77 107 62
143 89 120 89 -16 0 -284 -164 -279 -172 3 -4 10 -6 15 -3 5 3 6 0 3 -8 -3 -8
1 -17 10 -20 8 -3 17 1 20 9 3 8 10 14 15 14 5 0 204 -278 442 -617 238 -340
445 -635 461 -655 21 -27 25 -38 16 -44 -23 -14 -402 -196 -433 -208 -16 -6
-32 -14 -35 -17 -9 -10 -282 -139 -296 -139 -7 0 -14 -4 -16 -9 -1 -5 -31 -23
-65 -39 l-63 -30 -247 341 c-136 188 -336 465 -445 615 -109 150 -198 277
-198 281 0 4 18 17 40 30 38 21 52 41 29 41 -5 0 -7 5 -4 10 11 17 -15 11 -59
-15 -37 -22 -45 -23 -55 -11 -10 12 -3 19 38 42 27 16 47 32 45 36 -3 5 -10 5
-16 2 -6 -4 -8 -2 -4 4 17 29 -45 18 -84 -15 -14 -11 -77 72 -478 627 -254
352 -465 647 -468 655 -4 9 -1 15 7 15 8 -1 194 -251 414 -557 511 -710 516
-716 522 -709 6 6 23 -18 -697 976 -113 156 -208 289 -212 295 -5 8 7 22 33
39 34 23 43 25 56 15 13 -12 12 -16 -13 -36 -27 -21 -27 -23 -11 -41 9 -10 17
-26 17 -35 0 -19 15 -23 25 -6 4 5 0 18 -9 28 -21 23 -20 29 6 51 21 17 21 19
5 43 l-16 25 137 96 137 97 18 -22 c39 -48 449 -630 446 -633 -46 -32 -322
-206 -327 -206 -4 0 -18 16 -30 34 -15 21 -29 33 -38 29 -17 -6 -19 -23 -1
-23 6 0 21 -14 32 -30 11 -16 24 -30 28 -30 7 0 194 120 600 383 64 42 117 80
117 83 0 4 -11 22 -24 39 -19 24 -22 35 -14 43 17 17 4 24 -17 8 -17 -12 -17
-15 8 -52 15 -21 23 -41 19 -45 -4 -4 -80 -54 -169 -112 -147 -96 -163 -104
-176 -89 -27 32 -437 611 -443 626 -4 9 22 34 80 75 l86 61 305 -203 c287
-192 307 -207 346 -265 23 -34 46 -62 51 -62 11 0 4 12 -29 58 -13 17 -20 32
-15 32 27 0 104 -99 317 -403 130 -185 238 -343 241 -351 3 -8 -4 -16 -18 -19
-17 -5 -20 -9 -11 -18 15 -15 78 17 65 34 -14 18 -456 650 -467 667 -11 18
-31 31 414 -265 198 -132 361 -242 361 -245 0 -3 -81 -52 -180 -110 -98 -57
-176 -108 -174 -112 6 -10 -1 -14 208 110 143 85 172 98 187 89 17 -11 17 -12
-6 -27 -14 -8 -25 -24 -25 -35 1 -36 46 -149 83 -207 71 -111 96 -130 441
-338 l331 -198 23 -209 c12 -114 27 -237 32 -273 9 -59 42 -329 54 -440 2 -25
14 -119 25 -209 l21 -165 -35 -51 c-61 -87 -89 -184 -90 -300 0 -89 3 -107 28
-160 52 -111 120 -159 227 -160 128 0 255 92 324 238 45 95 60 166 54 268 -10
179 -108 292 -253 292 -88 0 -202 -54 -188 -89 5 -13 8 -13 22 0 33 30 112 57
166 57 135 0 225 -116 225 -291 0 -126 -45 -239 -132 -335 -100 -110 -225
-141 -324 -80 -39 25 -56 44 -84 99 -32 63 -35 74 -34 160 1 67 7 108 23 156
23 66 72 153 77 135 1 -6 8 -56 14 -112 9 -73 16 -103 26 -103 7 0 15 3 17 8
2 4 -4 75 -13 157 -63 530 -101 847 -136 1132 -14 117 -24 219 -22 228 2 11
146 -71 513 -291 281 -168 531 -317 557 -330 262 -133 637 9 884 335 252 333
292 773 90 993 -19 20 -292 242 -607 494 -316 251 -577 459 -581 463 -4 4 129
74 295 158 227 113 303 147 303 134 0 -25 1005 -1553 1018 -1548 119 50 1362
571 1364 572 3 3 -1005 1645 -1018 1658 -4 5 -36 -6 -70 -23 -34 -17 -64 -30
-65 -28 -2 2 25 18 60 37 64 33 64 33 50 59 -30 57 -28 56 -93 23 -34 -17 -67
-31 -74 -31 -7 1 18 17 55 36 40 20 67 40 64 47 -4 11 -1095 1788 -1102 1795
-3 3 -1334 -804 -1349 -818 -7 -7 1078 -1680 1090 -1680 16 0 74 36 74 47 0
17 -5 16 -36 -3 -15 -10 -29 -13 -34 -8 -5 5 -247 374 -539 819 -473 722 -528
811 -514 823 14 10 19 10 29 0 7 -7 243 -366 524 -798 281 -432 518 -791 526
-799 7 -8 16 -13 18 -10 3 3 -53 95 -125 204 -688 1053 -922 1412 -925 1420
-3 6 24 27 58 48 l63 37 18 -22 c18 -22 18 -22 -22 -46 l-41 -24 20 -33 c18
-29 18 -34 5 -45 -22 -18 -8 -31 20 -18 29 13 31 26 10 54 -19 26 -19 41 3 49
9 3 25 12 36 20 18 13 18 15 -4 45 -12 17 -21 33 -18 35 2 2 95 60 208 128
181 111 206 123 216 109 108 -159 514 -816 508 -822 -5 -4 -115 -67 -244 -139
l-235 -131 -20 26 c-56 74 -50 70 -79 51 -31 -21 -26 -43 5 -26 12 6 22 9 23
7 1 -2 14 -22 29 -45 l27 -42 32 18 c18 10 137 76 263 146 367 203 749 417
767 430 16 11 16 15 -12 58 l-29 46 24 15 c35 23 41 21 66 -24 21 -38 39 -52
39 -31 0 10 -494 817 -511 835 -5 5 -11 7 -15 4 -3 -4 7 -28 22 -53 l27 -47
-24 -19 c-23 -18 -24 -18 -39 0 -8 10 -20 27 -25 36 -10 17 -14 16 -52 -8 -25
-16 -45 -23 -48 -17 -9 14 -25 12 -25 -3 0 -33 23 -37 66 -12 l42 25 21 -36
21 -35 40 22 c22 12 41 21 43 18 5 -6 372 -602 374 -608 2 -4 -15 -16 -37 -29
-44 -25 -44 -29 3 -95 10 -16 18 -29 16 -31 -2 -1 -120 -67 -262 -146 -145
-80 -262 -139 -266 -134 -13 14 -512 804 -516 817 -3 7 68 56 163 113 92 56
235 144 317 196 83 52 157 97 166 100 11 5 125 -172 480 -750 255 -416 499
-812 542 -880 42 -69 77 -126 77 -127 0 -4 -208 -105 -216 -105 -3 0 -18 -8
-32 -19 -15 -10 -216 -114 -447 -231 l-419 -212 -23 28 c-13 16 -28 28 -34 26
-6 -1 -8 2 -5 7 3 4 56 127 116 272 61 145 112 265 114 266 1 2 54 -78 117
-177 62 -99 120 -180 127 -180 17 0 17 0 -118 210 -60 95 -110 177 -110 181 0
9 270 652 277 659 2 3 9 -2 13 -10 28 -45 26 -45 70 -25 24 11 44 15 49 9 14
-15 371 -595 371 -603 0 -4 -16 -15 -36 -24 l-36 -17 20 -34 19 -33 -43 -23
c-36 -20 -41 -27 -33 -42 12 -22 29 -24 29 -3 0 8 18 24 41 35 l40 21 -20 34
-20 35 29 15 c28 15 28 14 55 -30 14 -25 30 -43 36 -40 5 4 0 22 -13 44 -216
357 -495 798 -501 792 -5 -5 3 -27 17 -49 l25 -40 -24 -16 c-34 -22 -37 -21
-65 24 -28 45 -40 50 -40 17 0 -23 -521 -1269 -541 -1293 -13 -16 -29 -18 -29
-5 0 5 119 294 265 642 146 348 265 636 265 641 0 5 -15 -2 -32 -15 -18 -13
-121 -72 -228 -132 -216 -119 -206 -113 -197 -121 3 -3 96 45 207 106 111 61
203 110 205 108 4 -4 -213 -529 -224 -540 -4 -4 -53 66 -110 157 l-104 164
-41 -21 c-23 -11 -136 -74 -253 -139 -117 -66 -216 -119 -222 -119 -21 0 -21
-21 -2 -49 25 -35 26 -47 5 -55 -8 -3 -12 -10 -9 -16 4 -6 17 -4 36 5 l29 15
-25 40 -24 39 245 136 c135 75 248 135 250 132 3 -2 51 -78 108 -167 l104
-163 -45 -106 c-25 -58 -84 -200 -131 -314 -71 -169 -89 -205 -98 -192 -10 13
-16 14 -38 4 -33 -15 -34 -29 -2 -29 15 0 32 -10 43 -26 l19 -26 40 20 40 20
13 -20 c15 -23 17 -20 -36 -47 -47 -24 -49 -27 -27 -56 17 -22 -57 -57 813
385 319 161 437 217 443 208 4 -7 6 -17 5 -22 -1 -4 -278 -147 -615 -318 -572
-290 -611 -311 -599 -329 15 -24 28 -24 76 0 29 15 41 17 50 8 19 -19 13 -34
-19 -47 -41 -17 -44 -25 -24 -56 14 -20 15 -27 4 -34 -23 -14 -2 -30 25 -18
28 13 30 19 13 37 -11 11 -7 12 17 7 45 -8 681 -106 693 -106 6 0 50 -62 98
-137 48 -76 93 -147 101 -159 13 -20 4 -25 -233 -134 l-247 -113 -27 34 c-26
31 -30 32 -55 21 -29 -13 -26 -33 4 -25 14 3 26 -5 43 -30 l24 -35 24 19 c14
10 28 19 32 19 4 0 150 66 325 146 175 80 368 169 428 196 112 52 139 67 131
75 -2 3 -93 -36 -202 -86 -109 -50 -203 -91 -208 -91 -12 1 -190 279 -183 286
2 2 145 -18 318 -45 173 -27 320 -45 328 -41 10 5 1 10 -25 14 -155 25 -1400
216 -1406 216 -5 0 -6 5 -3 10 3 6 18 10 33 10 15 0 352 -50 750 -111 398 -61
725 -109 728 -106 3 3 -2 19 -10 36 -21 39 -21 37 14 49 27 10 31 8 47 -19 17
-28 33 -38 33 -21 0 9 -456 751 -471 766 -20 21 -18 -4 2 -39 22 -37 22 -38 4
-51 -28 -20 -38 -17 -57 16 l-17 31 -40 -21 c-22 -11 -46 -17 -54 -14 -21 8
-30 -11 -13 -25 11 -10 23 -8 56 9 l41 21 17 -31 c20 -35 23 -35 64 -14 25 13
33 14 43 2 13 -13 355 -567 355 -574 0 -2 -18 -13 -40 -24 l-41 -21 22 -30 21
-30 -33 6 c-19 3 -189 30 -379 58 l-344 53 -118 184 c-64 102 -120 184 -123
183 -4 -1 -8 -3 -11 -5 -2 -3 46 -82 106 -178 60 -96 109 -175 107 -176 -5 -4
-618 93 -624 99 -3 4 -3 7 1 7 4 0 -2 13 -14 30 l-21 29 203 102 c528 264 684
343 698 350 80 46 215 108 221 102 4 -4 109 -174 234 -378 125 -203 237 -383
249 -400 13 -16 25 -37 28 -45 3 -8 112 -188 242 -399 130 -211 236 -387 236
-390 0 -7 -31 -21 -416 -181 -133 -55 -246 -100 -250 -100 -7 0 -420 640 -461
715 -12 21 -4 26 243 139 140 64 259 116 264 116 5 0 20 -18 32 -40 26 -44 35
-47 80 -24 17 9 34 12 38 7 15 -17 331 -535 328 -538 -2 -1 -18 -10 -35 -19
-37 -19 -38 -23 -18 -50 21 -28 20 -31 -25 -46 -28 -9 -39 -18 -35 -28 3 -7 5
-16 5 -18 0 -2 7 -4 16 -4 8 0 12 4 9 10 -3 5 12 17 34 26 45 18 49 28 25 62
-14 21 -14 23 13 33 23 9 30 7 40 -8 30 -45 42 -57 48 -51 4 4 -99 178 -228
388 -129 209 -238 376 -242 370 -4 -6 5 -30 20 -52 26 -39 27 -42 9 -55 -31
-22 -48 -15 -74 32 -14 25 -26 45 -28 45 -6 0 -47 -23 -52 -29 -3 -4 -66 -34
-140 -68 -74 -34 -272 -125 -440 -203 -168 -78 -338 -157 -378 -176 -51 -23
-71 -37 -66 -46 4 -7 16 -25 26 -40 18 -25 18 -27 1 -37 -25 -13 -11 -23 21
-15 32 8 32 16 1 62 -14 20 -21 39 -17 42 4 4 114 55 245 115 203 92 240 106
251 94 16 -17 444 -692 452 -712 3 -8 -1 -17 -8 -20 -7 -3 -100 -42 -207 -86
l-195 -82 -21 27 -22 27 -41 -16 c-23 -9 -42 -13 -42 -9 0 4 -9 18 -19 31 -15
20 -21 22 -40 12 -22 -12 -20 -34 3 -25 7 3 21 -6 30 -20 19 -30 35 -32 75
-12 25 13 28 13 39 -5 12 -18 8 -22 -43 -44 -31 -14 -61 -25 -68 -25 -7 0 -34
35 -62 78 -107 167 -352 542 -417 639 -37 56 -68 106 -68 111 0 6 -4 12 -8 14
-4 2 -108 157 -231 346 -123 188 -227 342 -232 342 -5 0 -6 7 -3 15 4 8 1 15
-7 15 -14 0 -875 -435 -905 -457 -18 -14 -17 -16 17 -44 35 -27 36 -32 32 -76
-3 -27 -27 -118 -53 -203 -66 -209 -157 -365 -307 -526 -56 -61 -103 -115
-103 -120 0 -5 17 -20 37 -33 l37 -24 -30 -24 c-43 -36 -134 -80 -203 -99 -34
-10 -61 -21 -61 -26 0 -45 197 28 293 109 l29 23 63 -45 c35 -25 68 -45 74
-45 34 0 9 27 -84 90 -58 40 -105 77 -105 83 1 7 40 54 88 105 l87 93 110 -75
c100 -69 125 -80 125 -56 0 5 -48 41 -106 81 -81 54 -104 74 -99 87 19 52 128
221 139 215 6 -3 52 -35 103 -70 50 -34 96 -63 102 -63 29 0 3 30 -67 78 -42
29 -90 63 -106 75 l-29 23 38 122 c21 67 42 122 47 122 5 0 49 -27 98 -60 49
-33 94 -60 100 -60 31 0 -1 32 -90 90 l-100 65 6 90 c10 136 8 134 88 70 38
-30 70 -55 72 -55 14 0 -17 43 -59 81 l-50 47 31 16 c35 18 27 24 79 -62 7
-12 18 -41 23 -65 5 -23 13 -60 19 -82 25 -97 8 -275 -41 -425 -30 -93 -114
-257 -170 -335 -147 -201 -324 -352 -508 -432 -41 -18 -94 -35 -118 -39 -39
-6 -61 -19 -49 -30 7 -8 97 15 163 42 l62 25 172 -126 c119 -88 177 -125 193
-123 17 2 -18 33 -155 134 l-178 131 80 52 c89 58 236 193 300 275 l42 55 191
-144 c176 -132 207 -151 207 -125 0 6 -84 73 -187 151 -104 77 -187 144 -186
147 1 4 24 45 52 92 70 116 151 333 151 402 0 9 4 19 9 22 4 3 89 -58 187
-135 156 -123 196 -147 182 -110 -1 5 -84 73 -183 151 l-180 141 -2 94 c-2
103 -21 191 -58 274 -14 29 -19 49 -13 44 23 -18 323 -256 331 -263 10 -9 137
-457 137 -486 0 -30 -195 -508 -223 -547 -36 -49 -429 -373 -467 -385 -19 -6
-93 -16 -165 -23 -71 -6 -134 -16 -140 -21 -9 -10 113 -5 200 8 l30 4 -30 -10
c-16 -6 -63 -13 -103 -17 -56 -5 -70 -9 -57 -16 27 -15 142 -1 224 27 212 73
417 242 567 466 124 187 183 357 191 553 6 135 -5 210 -47 309 l-27 67 77 -62
c116 -92 160 -174 180 -332 34 -272 -96 -606 -329 -848 -177 -184 -362 -286
-550 -303 -75 -7 -80 -24 -7 -24 106 0 295 76 421 171 142 106 294 287 373
444 74 149 122 335 122 480 0 85 -26 208 -55 266 -12 22 -13 29 -3 23 43 -26
500 -399 530 -432 109 -121 144 -347 87 -569 -29 -114 -125 -302 -206 -403
-237 -294 -587 -423 -823 -302 -30 16 -167 97 -305 181 -137 85 -281 172 -320
194 -38 22 -100 59 -137 83 -37 24 -69 44 -72 44 -4 0 -250 145 -264 156 -2 1
-16 116 -32 255 -16 140 -32 266 -34 280 -5 24 1 28 75 59 44 18 81 36 83 39
6 9 -74 111 -85 111 -5 0 -80 -32 -167 -71 -86 -40 -177 -80 -201 -91 -33 -14
-41 -22 -33 -30 8 -8 22 -7 53 7 35 16 42 17 50 4 25 -41 28 -44 40 -32 9 9 7
17 -4 34 -16 22 -16 23 111 81 70 31 132 58 138 58 13 0 41 -29 46 -48 2 -8
-20 -23 -52 -37 -44 -19 -56 -21 -58 -9 -2 8 -12 14 -23 14 -14 0 -19 -7 -19
-25 0 -19 -9 -28 -47 -45 -34 -15 -44 -23 -35 -32 8 -8 22 -6 51 6 23 9 41 12
41 6 0 -5 14 -118 30 -251 17 -132 30 -244 28 -248 -2 -4 -28 8 -58 26 l-55
34 39 -3 c62 -5 55 18 -7 25 -29 3 -70 12 -91 21 l-39 16 40 43 c22 24 46 60
52 80 11 32 15 36 42 32 24 -3 30 0 27 13 -2 9 -9 18 -16 18 -6 1 -19 2 -27 3
-9 1 -15 11 -15 28 0 54 -64 154 -89 139 -6 -4 3 -25 22 -52 28 -39 32 -54 32
-107 0 -72 -23 -120 -73 -154 l-33 -22 -109 66 c-60 36 -108 69 -105 73 2 4
26 13 52 21 83 23 186 148 148 179 -10 9 -15 6 -20 -12 -22 -75 -106 -140
-197 -153 -43 -6 -53 -4 -108 30 -88 53 -183 189 -220 312 -16 53 -4 71 48 75
35 3 26 10 -208 163 -384 252 -1857 1232 -1877 1249 -10 9 -43 30 -73 48 -45
27 -60 44 -85 93 -27 55 -30 69 -30 160 0 114 20 204 72 335 153 382 513 740
780 776 174 23 273 -121 244 -354 -43 -341 -337 -774 -650 -957 -34 -20 -64
-35 -66 -33 -7 7 32 158 61 238 104 290 308 533 557 665 74 39 78 66 5 29
-217 -110 -417 -317 -528 -548 -46 -95 -95 -240 -112 -332 -13 -74 -20 -79
-114 -90 -52 -6 -53 -8 -33 -22 18 -12 30 -13 77 -2 273 61 612 411 762 787
72 180 95 340 66 451 -7 29 -10 51 -7 50 4 -2 145 -110 313 -241 296 -229 307
-239 321 -285 50 -157 12 -358 -109 -592 -163 -313 -447 -572 -673 -611 -35
-7 -58 -15 -51 -19 21 -13 114 10 195 49 348 166 678 669 677 1031 0 47 -5
100 -11 119 -6 19 -9 36 -8 38 4 3 686 -524 725 -560 48 -45 66 -95 70 -204 8
-188 -51 -366 -191 -578 -146 -220 -399 -394 -613 -421 -43 -5 -53 -9 -40 -16
10 -6 37 -5 74 2 331 68 631 369 757 760 35 109 46 289 21 360 -8 24 -14 45
-13 46 5 6 585 -450 613 -481 129 -144 59 -518 -149 -795 -100 -133 -261 -254
-416 -311 -74 -27 -100 -32 -188 -33 -56 0 -99 -4 -95 -7 21 -19 313 -209 321
-209 34 0 5 27 -104 100 -69 45 -122 87 -119 91 3 5 8 7 12 5 15 -9 129 16
204 45 164 63 342 212 445 371 55 86 102 186 139 298 24 75 28 101 28 215 1
102 -3 138 -16 168 l-18 38 63 -49 c34 -27 125 -98 202 -157 77 -59 146 -112
153 -118 9 -7 17 -6 25 2 9 10 8 15 -8 26 -86 61 -444 342 -444 349 -1 14 249
0 306 -18 35 -11 88 -45 165 -105 167 -131 162 -120 72 -164 -41 -21 -72 -42
-69 -47 3 -5 50 13 107 41 89 45 99 52 82 62 -10 6 -75 56 -143 111 -172 138
-205 150 -413 152 l-158 1 -160 124 c-88 68 -162 130 -164 139 -2 8 -30 217
-62 463 -51 394 -57 451 -44 470 53 83 63 112 67 181 3 60 1 77 -19 110 -33
56 -79 78 -153 74 -75 -5 -127 -30 -185 -88 -92 -91 -125 -220 -78 -310 30
-57 76 -84 144 -84 56 0 134 29 134 50 0 10 -11 8 -42 -6 -25 -11 -65 -20 -95
-20 -44 0 -58 5 -88 31 -84 74 -63 220 47 326 165 160 365 69 304 -139 -8 -30
-31 -75 -51 -100 l-35 -46 30 -239 c17 -131 42 -323 56 -426 14 -104 24 -196
22 -204 -2 -11 -287 205 -881 666 -483 375 -893 689 -910 698 -22 12 -56 18
-109 18 -43 0 -78 0 -78 1 0 1 56 38 125 84 69 46 125 85 125 88 0 2 -10 20
-21 39 -16 25 -25 31 -33 23 -7 -7 -7 -16 3 -31 7 -12 9 -25 4 -29 -4 -4 -179
-121 -387 -260 l-380 -252 -18 22 c-10 13 -17 28 -15 33 2 6 178 129 393 274
541 366 525 355 521 367 -3 6 -10 10 -17 8 -6 -1 -253 -165 -547 -363 -294
-198 -539 -359 -544 -357 -18 6 -660 975 -681 1027 -31 80 -31 216 0 285 12
28 34 64 47 82 30 39 634 445 689 464 98 32 256 -10 352 -94 26 -22 165 -219
369 -523 180 -269 335 -496 343 -506 10 -11 19 -14 25 -8 12 12 -629 968 -697
1039 -32 33 -78 67 -124 90 -65 32 -84 36 -160 39 -48 1 -98 -1 -112 -6z
m5615 -2560 c-14 -12 -956 -492 -1040 -529 -18 -8 -26 -9 -19 -3 13 14 1045
540 1059 541 6 0 6 -3 0 -9z m-577 -1448 c414 -637 490 -758 476 -766 -9 -5
-20 -5 -24 -1 -5 5 -230 346 -499 759 -475 724 -499 765 -456 764 6 0 232
-340 503 -756z"/>
<path d="M1289 5303 c-239 -231 -358 -465 -375 -738 -7 -111 0 -128 10 -24 24
257 163 530 388 765 45 46 78 84 74 84 -4 0 -48 -39 -97 -87z"/>
<path d="M5028 3924 c-290 -145 -357 -184 -317 -184 9 0 633 314 648 326 1 1
1 7 0 12 -2 6 -151 -64 -331 -154z"/>
<path d="M2130 3362 c0 -5 7 -17 15 -28 19 -25 19 -40 -2 -48 -12 -5 -24 3
-41 24 -14 18 -28 28 -31 23 -3 -5 -82 -58 -176 -117 -93 -60 -174 -112 -178
-116 -5 -4 33 -65 83 -135 50 -70 90 -129 88 -130 -3 -3 -299 40 -417 61 -35
6 -35 6 90 86 140 91 134 86 128 93 -3 2 -70 -38 -150 -90 -79 -52 -140 -95
-136 -95 4 0 94 -13 200 -30 106 -16 221 -34 257 -39 172 -25 598 -92 619 -97
15 -3 20 -9 14 -15 -9 -9 -43 -5 -333 41 -129 20 -167 24 -158 14 3 -3 93 -18
199 -34 265 -41 260 -40 253 -51 -3 -6 2 -19 11 -29 16 -18 15 -20 -22 -43
-65 -41 -230 -136 -245 -142 -10 -4 -49 43 -128 154 -86 121 -120 162 -139
166 -15 2 -142 23 -283 45 -141 22 -261 40 -265 41 -22 4 -23 -3 -5 -28 11
-16 20 -31 21 -35 1 -5 3 -8 6 -8 3 0 10 0 15 0 6 0 3 11 -6 25 -11 17 -12 25
-4 25 11 0 426 -63 498 -75 28 -5 46 -26 147 -167 101 -144 112 -163 97 -173
-9 -6 -73 -44 -141 -85 l-125 -73 -17 22 c-17 21 -19 21 -44 5 -25 -16 -27
-16 -41 5 -8 11 -22 21 -30 21 -11 0 -7 -10 12 -34 26 -32 29 -33 48 -20 28
19 44 18 51 -6 3 -11 10 -20 15 -20 5 0 152 85 327 188 347 206 363 215 363
208 0 -3 -66 -44 -147 -92 -82 -47 -168 -99 -193 -114 -25 -15 -112 -67 -195
-115 -82 -49 -144 -90 -138 -92 10 -4 619 348 677 390 15 11 16 17 7 35 l-11
21 -36 -21 c-30 -18 -37 -19 -45 -7 -13 21 -11 27 14 40 12 6 23 13 25 14 2 2
-4 15 -13 29 -9 14 -14 30 -10 37 5 7 1 10 -11 7 -11 -2 -18 -11 -18 -21 2
-14 -4 -17 -25 -13 -14 3 -136 22 -271 42 -135 20 -251 41 -258 47 -15 12
-169 228 -177 249 -5 11 39 44 161 124 l167 108 24 -31 c24 -31 26 -31 49 -17
13 9 28 13 33 10 5 -4 94 -127 197 -274 219 -312 193 -277 200 -269 6 5 -432
637 -442 637 -2 0 -4 -4 -4 -8z"/>
<path d="M2263 2397 c-188 -111 -339 -205 -336 -210 2 -4 9 -4 15 -1 7 4 8 2
4 -4 -4 -6 1 -23 10 -37 9 -14 12 -25 7 -25 -5 0 -17 -6 -27 -13 -16 -12 -17
-17 -5 -38 7 -13 13 -27 14 -31 1 -16 15 -19 21 -4 4 10 -1 25 -11 36 -17 19
-16 20 9 31 26 12 34 33 16 44 -5 3 -10 10 -10 14 0 8 280 175 284 169 2 -2
53 -74 115 -160 l112 -157 -67 -228 c-36 -125 -68 -230 -71 -233 -2 -3 -11 4
-19 14 -12 17 -17 18 -41 7 -24 -11 -29 -10 -41 6 -7 10 -92 127 -189 261 -96
133 -179 242 -184 242 -6 0 0 -15 13 -32 24 -36 409 -570 415 -577 1 -2 6 -2
9 2 3 3 -4 20 -16 37 -19 26 -20 34 -9 41 20 13 22 12 45 -21 l20 -29 77 266
c67 229 75 267 62 277 -21 16 -214 290 -209 297 2 4 67 43 143 88 l140 81 26
-26 26 -26 -57 -195 c-31 -107 -53 -197 -50 -200 3 -4 6 -4 6 -2 0 24 124 417
135 428 13 13 15 13 15 1 0 -13 -229 -807 -265 -917 -8 -24 -12 -43 -10 -43 3
0 43 21 453 239 l252 134 -21 33 -20 32 22 7 c16 5 27 0 46 -21 62 -73 -2 25
-197 304 -117 166 -217 302 -223 302 -5 0 -3 -9 4 -19 8 -11 35 -50 61 -88 26
-37 108 -153 182 -258 139 -197 141 -201 92 -218 -7 -3 -5 -15 7 -36 11 -18
17 -34 15 -35 -5 -5 -240 -132 -295 -160 l-52 -26 -85 119 c-47 66 -88 125
-91 133 -3 7 26 121 65 252 38 131 70 241 70 243 0 3 6 0 14 -6 15 -13 49 -4
40 10 -3 5 -9 7 -14 4 -5 -3 -17 6 -29 20 -19 25 -21 26 -49 11 -27 -14 -31
-14 -43 0 -14 17 -11 21 36 49 18 11 11 46 -9 44 -6 0 -165 -91 -353 -202z
m386 -625 c24 -34 42 -64 40 -66 -20 -17 -279 -145 -279 -138 0 10 71 259 96
335 l16 48 42 -58 c23 -32 62 -86 85 -121z"/>
<path d="M3174 1867 l27 -36 -22 -11 c-18 -10 -23 -9 -30 2 -5 8 -16 25 -26
37 l-18 22 -360 -191 c-198 -105 -364 -196 -370 -201 -6 -6 -3 -20 9 -40 14
-24 15 -33 6 -42 -9 -9 -18 -4 -41 22 -16 19 -31 32 -34 29 -4 -4 375 -539
406 -572 19 -21 18 3 -2 28 -19 24 -19 27 -3 33 11 4 23 -1 34 -15 16 -19 21
-20 51 -9 44 15 42 14 34 26 -4 8 -14 7 -33 -3 -24 -13 -27 -12 -44 10 -16 20
-22 22 -43 12 -14 -6 -27 -9 -29 -7 -27 32 -296 412 -296 419 0 6 3 10 8 10 4
0 13 4 21 9 11 7 10 15 -9 46 -12 20 -21 37 -19 39 8 7 328 176 333 176 3 0
96 -127 207 -282 219 -308 216 -304 224 -296 3 3 -85 133 -195 288 -111 155
-204 288 -206 294 -3 7 65 49 168 104 l173 92 30 -36 c28 -33 32 -35 58 -23
15 7 29 10 31 8 12 -14 299 -424 302 -434 3 -6 -7 -17 -22 -24 -25 -11 -25
-13 -10 -30 22 -25 20 -36 -11 -50 -18 -8 -23 -15 -15 -23 7 -7 14 -7 24 1 7
7 22 18 33 25 19 14 19 15 2 33 -21 24 -21 29 0 37 11 4 25 -4 44 -26 16 -18
28 -28 28 -23 1 16 -413 598 -428 603 -8 3 -2 -11 13 -31z"/>
</g>
</svg>
